:SAMPLES-PER-SECOND 30
:FULLY-SPECIFIED
:DEGREES
218
root  60.621 33.1922 -3.81969 -172.825 -4.10083 179.966
RightUpLeg  -55.3602 -3.50089 -1.72786
RightLeg  58.4352 -4.42075 -8.2098
RightFoot  -9.3451 -0.0557158 -0.434166
RightToes  0.000482159 0.542163 -0.142577
Spine  53.3715 -2.67346 4.17613
Spine1  -5.64645 -1.99931 2.01055
HEad  -27.806 14.4564 -15.9112
LeftShoulder1  8.50459 -15.6129 -38.3151
LeftArm  -19.0103 4.72236 -26.4104
LeftForeArm  53.8495 -53.0998 -10.6319
LeftHand  -0.25398 0.0180481 5.50724
RightShoulder  4.94719 10.6368 29
RightArm  -16.5761 -20.8594 34.2793
RightForeArm  -14.2498 50.6092 14.7302
RightHand  -1.85177 4.66343 -21.4982
LeftUpLeg  -57.0518 7.76964 -0.071222
LeftLeg  53.6457 5.16074 7.96567
LeftFoot  -5.12905 0.0874788 -1.01754
LeftToes  1.06246e-005 4.65855e-005 -8.18503e-006
219
root  60.6568 33.9841 -4.42174 -173.221 -4.81357 -179.697
RightUpLeg  -51.583 -4.79415 -0.981302
RightLeg  55.0019 -4.61417 -7.48157
RightFoot  -9.13256 -0.0530446 -0.459742
RightToes  0.000482159 0.542163 -0.142577
Spine  51.9154 -3.09653 4.92192
Spine1  -5.44958 -1.91692 1.27268
HEad  -28.1068 15.8883 -16.9557
LeftShoulder1  8.73237 -15.6328 -39.4082
LeftArm  -16.6387 5.97705 -26.2818
LeftForeArm  49.5009 -46.221 -8.2217
LeftHand  -0.25398 0.0180481 5.50724
RightShoulder  4.99742 10.6347 29.3685
RightArm  -15.3597 -20.0914 34.1795
RightForeArm  -13.2856 46.1977 12.5587
RightHand  -1.85076 4.87835 -21.0604
LeftUpLeg  -53.5519 7.0388 0.72791
LeftLeg  50.4736 5.65515 7.75071
LeftFoot  -4.6073 0.100451 -1.22332
LeftToes  1.06246e-005 4.65855e-005 -8.18503e-006
220
root  60.6735 34.7607 -5.01981 -173.855 -5.43515 -179.294
RightUpLeg  -47.5303 -6.13499 -0.268771
RightLeg  51.3197 -4.64079 -6.57205
RightFoot  -8.83543 -0.0517778 -0.37006
RightToes  0.000482159 0.542163 -0.142577
Spine  50.3835 -3.49588 5.7372
Spine1  -5.37591 -1.74453 0.301976
HEad  -28.1652 17.7944 -17.5729
LeftShoulder1  8.96459 -15.594 -40.6488
LeftArm  -14.3912 7.96518 -25.9565
LeftForeArm  45.5898 -40.6782 -6.72468
LeftHand  -0.25398 0.0180481 5.50724
RightShoulder  5.052 10.5951 29.8641
RightArm  -14.3035 -19.0101 33.8798
RightForeArm  -11.2944 41.6136 10.6329
RightHand  -1.86953 5.20989 -20.6353
LeftUpLeg  -49.7794 6.54767 1.51667
LeftLeg  47.1655 6.01892 7.33322
LeftFoot  -4.27499 0.126689 -1.62675
LeftToes  1.06246e-005 4.65855e-005 -8.18503e-006
221
root  60.6687 35.4951 -5.62755 -174.675 -5.89078 -178.948
RightUpLeg  -43.333 -7.47889 0.272609
RightLeg  47.6071 -4.58619 -5.70424
RightFoot  -8.54302 -0.0461574 -0.477288
RightToes  0.000482159 0.542163 -0.142577
Spine  48.6688 -3.7756 6.48827
Spine1  -5.32551 -1.51033 -0.797233
HEad  -27.2511 19.6288 -18.7778
LeftShoulder1  9.12628 -15.3814 -41.9481
LeftArm  -12.2794 10.515 -25.4897
LeftForeArm  42.1921 -36.6011 -5.80827
LeftHand  -0.25398 0.0180481 5.50724
RightShoulder  5.16279 10.6406 30.5422
RightArm  -13.3523 -17.5787 33.355
RightForeArm  -9.26605 36.794 8.92023
RightHand  -1.97991 5.79455 -20.7184
LeftUpLeg  -45.8652 6.37767 2.1222
LeftLeg  43.9159 6.15873 6.71551
LeftFoot  -4.1364 0.132919 -1.71087
LeftToes  1.06246e-005 4.65855e-005 -8.18503e-006
222
root  60.6403 36.1689 -6.25365 -175.683 -6.26691 -178.751
RightUpLeg  -39.0579 -8.95944 0.538324
RightLeg  44.0428 -4.40828 -4.86747
RightFoot  -8.23752 -0.0311618 -0.90582
RightToes  0.000482159 0.542163 -0.142577
Spine  46.7696 -3.87791 7.22521
Spine1  -5.16079 -1.16576 -1.98079
HEad  -25.6694 21.0617 -20.1176
LeftShoulder1  9.22358 -15.0934 -43.1282
LeftArm  -10.3368 13.3 -25.0422
LeftForeArm  39.4921 -33.7862 -5.25018
LeftHand  -0.25398 0.0180481 5.50724
RightShoulder  5.29512 10.6696 31.4112
RightArm  -12.3762 -15.7315 32.6443
RightForeArm  -8.29151 31.7043 7.41653
RightHand  -2.15567 6.43126 -21.333
LeftUpLeg  -41.8565 6.36168 2.50153
LeftLeg  40.7852 6.16331 6.05182
LeftFoot  -3.92016 0.120379 -1.49534
LeftToes  1.06246e-005 4.65855e-005 -8.18503e-006
223
root  60.5782 36.7855 -6.8825 -176.916 -6.70337 -178.571
RightUpLeg  -34.6276 -10.5284 0.563722
RightLeg  40.5576 -4.02038 -3.9726
RightFoot  -7.83617 -0.0157132 -1.22398
RightToes  0.000482159 0.542163 -0.142577
Spine  44.8153 -3.87277 8.22127
Spine1  -4.9099 -0.639979 -3.2555
HEad  -24.7107 22.9758 -20.4692
LeftShoulder1  9.3397 -14.8901 -44.2125
LeftArm  -8.61342 16.1549 -24.6086
LeftForeArm  37.5905 -32.0719 -4.94227
LeftHand  -0.25398 0.0180481 5.50724
RightShoulder  5.37764 10.5465 32.3312
RightArm  -11.262 -13.512 31.863
RightForeArm  -8.7044 26.4626 6.11793
RightHand  -2.29666 6.8313 -21.9675
LeftUpLeg  -37.7039 6.28214 2.87195
LeftLeg  37.679 6.15383 5.44478
LeftFoot  -3.42945 0.13336 -1.62517
LeftToes  1.06246e-005 4.65855e-005 -8.18503e-006
224
root  60.4804 37.3589 -7.48821 -178.373 -7.25392 -178.349
RightUpLeg  -29.9446 -11.9392 0.338139
RightLeg  36.9851 -3.56102 -3.1466
RightFoot  -7.34259 -0.0138127 -1.03419
RightToes  0.000482159 0.542163 -0.142577
Spine  42.9332 -3.78108 9.44569
Spine1  -4.66749 0.0287297 -4.45432
HEad  -23.1877 24.892 -21.048
LeftShoulder1  9.45055 -14.7277 -45.1796
LeftArm  -7.32784 19.0102 -24.316
LeftForeArm  36.4363 -31.2383 -4.80939
LeftHand  -0.25398 0.0180481 5.50724
RightShoulder  5.38962 10.2947 33.116
RightArm  -10.776 -11.0319 31.1002
RightForeArm  -9.1431 21.2604 5.34467
RightHand  -2.35796 6.9864 -22.26
LeftUpLeg  -33.484 6.18942 3.26096
LeftLeg  34.6255 5.97496 4.77891
LeftFoot  -2.44893 0.16549 -1.94415
LeftToes  1.06246e-005 4.65855e-005 -8.18503e-006
225
root  60.3619 37.8866 -8.05622 -179.706 -8.08553 -178.227
RightUpLeg  -25.3857 -13.2632 -0.166106
RightLeg  33.3495 -3.29098 -2.58338
RightFoot  -6.83008 -0.0209996 -0.640448
RightToes  0.000482159 0.542163 -0.142577
Spine  40.8615 -3.56021 10.5969
Spine1  -4.37545 0.682376 -5.34822
HEad  -21.1059 26.5447 -21.3323
LeftShoulder1  9.40751 -14.4444 -45.7028
LeftArm  -6.7647 21.6268 -24.5549
LeftForeArm  35.8048 -30.8246 -4.74748
LeftHand  -0.25398 0.0180481 5.50724
RightShoulder  5.35586 10.0011 33.7124
RightArm  -12.8392 -8.47376 30.3828
RightForeArm  -7.12481 16.4161 5.6782
RightHand  -2.3878 7.08197 -22.3655
LeftUpLeg  -29.9056 6.45918 3.37306
LeftLeg  32.0008 5.05708 3.75287
LeftFoot  -0.63075 0.17138 -1.81073
LeftToes  1.06246e-005 4.65855e-005 -8.18503e-006
226
root  60.2395 38.3509 -8.58484 179.381 -9.52788 -178.326
RightUpLeg  -21.3793 -15.0148 -0.950104
RightLeg  29.9016 -3.14103 -2.19577
RightFoot  -6.35397 -0.0231585 -0.456227
RightToes  0.000482159 0.542163 -0.142577
Spine  38.5159 -3.2681 11.538
Spine1  -4.05209 1.16348 -5.91212
HEad  -18.6696 27.5642 -21.0883
LeftShoulder1  9.17441 -14.04 -45.5932
LeftArm  -6.79206 23.7395 -25.3516
LeftForeArm  35.3847 -30.5004 -4.69517
LeftHand  -0.25398 0.0180481 5.50724
RightShoulder  5.30397 9.71848 34.1639
RightArm  -14.9147 -6.24781 29.9379
RightForeArm  -5.42416 13.0453 5.93104
RightHand  -2.44631 7.21918 -22.6528
LeftUpLeg  -27.6376 7.45066 3.05955
LeftLeg  30.3035 2.93067 2.19423
LeftFoot  2.0383 0.25306 -2.23094
LeftToes  1.06246e-005 4.65855e-005 -8.18503e-006
227
root  60.1024 38.731 -9.07381 178.661 -11.6933 -178.43
RightUpLeg  -17.7401 -17.5672 -1.88089
RightLeg  26.8146 -2.75272 -1.76037
RightFoot  -5.94407 -0.0319096 -0.180919
RightToes  0.000482159 0.542163 -0.142577
Spine  36.2729 -3.10888 12.5873
Spine1  -3.89749 1.45334 -6.40056
HEad  -16.1775 27.8968 -20.5145
LeftShoulder1  8.92519 -13.6899 -45.2463
LeftArm  -6.83214 25.3639 -26.0641
LeftForeArm  34.9585 -30.3781 -4.68978
LeftHand  -0.25398 0.0180481 5.50724
RightShoulder  5.24783 9.48943 34.436
RightArm  -15.3256 -4.85511 29.8575
RightForeArm  -5.82599 12.126 6.0132
RightHand  -2.54186 7.37924 -23.2189
LeftUpLeg  -26.4957 9.05625 2.70979
LeftLeg  29.8629 0.0897982 0.392139
LeftFoot  4.78533 0.703731 -5.13301
LeftToes  1.06246e-005 4.65855e-005 -8.18503e-006
